<svg width="15" height="18" viewBox="0 0 15 18" fill="none" xmlns="http://www.w3.org/2000/svg">
<path d="M5.65053 15.216H14.9145V18H0.754531V15.432L7.85853 10.032C8.61053 9.408 9.16253 8.936 9.51453 8.616C9.88253 8.296 10.2185 7.888 10.5225 7.392C10.8425 6.896 11.0025 6.408 11.0025 5.928C11.0025 5.208 10.7385 4.656 10.2105 4.272C9.68253 3.888 8.98653 3.696 8.12253 3.696C5.99453 3.696 4.80253 4.84 4.54653 7.128L1.23453 6.888C1.41053 4.872 2.11453 3.376 3.34653 2.4C4.57853 1.408 6.16253 0.912 8.09853 0.912C9.95453 0.912 11.4745 1.336 12.6585 2.184C13.8425 3.016 14.4345 4.232 14.4345 5.832C14.4345 6.824 14.1385 7.744 13.5465 8.592C12.9705 9.44 11.9545 10.408 10.4985 11.496L5.65053 15.216Z" fill="white"/>
</svg>
