<svg width="30" height="30" viewBox="0 0 30 30" fill="none" xmlns="http://www.w3.org/2000/svg">
<path d="M15 30C23.2843 30 30 23.2843 30 15C30 6.71573 23.2843 0 15 0C6.71573 0 0 6.71573 0 15C0 23.2843 6.71573 30 15 30Z" fill="#4169E1"/>
<path d="M23.2994 19.9772C22.8804 20.0285 20.8316 19.9772 20.7253 19.9772C20.1957 19.9831 19.6847 19.8072 19.3032 19.4876C18.8712 19.1261 18.485 18.7276 18.0628 18.349C17.938 18.2341 17.8028 18.128 17.6586 18.0316C17.3215 17.8053 16.9877 17.8566 16.829 18.2024C16.7049 18.5762 16.6184 18.9586 16.5704 19.3453C16.5426 19.6954 16.2873 19.9146 15.8356 19.9388C15.5558 19.9516 15.276 19.9559 14.9994 19.9502C13.9916 19.9446 12.9995 19.7314 12.1046 19.3282C11.1363 18.8589 10.2926 18.2173 9.62869 17.4453C8.5372 16.2326 7.66498 14.9005 6.88605 13.527C6.84514 13.4587 6.04656 11.9814 6.02692 11.9116C5.95492 11.6782 6.02693 11.4548 6.24784 11.3779C6.38857 11.3309 9.01994 11.3779 9.06413 11.3779C9.25975 11.3764 9.45084 11.4292 9.60971 11.5284C9.76858 11.6277 9.88699 11.7684 9.94779 11.9301C10.4342 13.0134 11.1002 14.029 11.9246 14.9446C12.04 15.067 12.175 15.1744 12.3255 15.2634C12.5399 15.3901 12.7428 15.346 12.8312 15.131C12.9359 14.8329 12.9975 14.5245 13.0145 14.213C13.0292 13.5953 13.0145 13.1883 12.9752 12.572C12.949 12.1764 12.7886 11.8291 12.1177 11.7181C11.9115 11.6868 11.8935 11.5387 12.0261 11.3907C12.3026 11.0833 12.6806 11.0349 13.1045 11.0164C13.7361 10.9851 14.3678 11.0064 14.9994 11.0164H15.1369C15.4118 11.0155 15.6861 11.0399 15.9551 11.089C16.1142 11.117 16.2585 11.1889 16.3668 11.294C16.475 11.3992 16.5413 11.532 16.5557 11.6725C16.588 11.8284 16.6017 11.9867 16.5966 12.145C16.5802 12.8197 16.5426 13.4929 16.5344 14.1675C16.5269 14.4346 16.5549 14.7016 16.6179 14.9631C16.7079 15.3218 16.991 15.4114 17.2724 15.1524C17.6369 14.8175 17.9712 14.4588 18.2723 14.0793C18.8047 13.3876 19.244 12.645 19.5814 11.8661C19.7647 11.4662 19.9087 11.3779 20.3996 11.3779H23.1914C23.3574 11.3754 23.5229 11.3946 23.6823 11.4348C23.7387 11.4477 23.7915 11.4706 23.8373 11.5021C23.8831 11.5335 23.9209 11.5729 23.9484 11.6176C23.9759 11.6624 23.9925 11.7116 23.9971 11.7622C24.0017 11.8128 23.9943 11.8637 23.9752 11.9116C23.8378 12.4439 23.5072 12.8979 23.157 13.3349C22.5892 14.0351 21.9902 14.7169 21.4093 15.4057C21.3358 15.4971 21.2686 15.5921 21.208 15.6904C20.9887 16.0334 21.0051 16.2255 21.3226 16.5116C21.8299 16.9642 22.3715 17.3897 22.8608 17.8566C23.2201 18.196 23.5442 18.5622 23.8296 18.9511C24.1879 19.4335 23.967 19.8947 23.2994 19.9772Z" fill="white"/>
</svg>
